<?xml version="1.0" encoding="utf-8"?>
<!-- Generator: Adobe Illustrator 15.1.0, SVG Export Plug-In . SVG Version: 6.00 Build 0)  -->
<!DOCTYPE svg PUBLIC "-//W3C//DTD SVG 1.1//EN" "http://www.w3.org/Graphics/SVG/1.1/DTD/svg11.dtd">
<svg version="1.1" id="Layer_3" xmlns="http://www.w3.org/2000/svg" xmlns:xlink="http://www.w3.org/1999/xlink" x="0px" y="0px"
	 width="600px" height="600px" viewBox="0 0 600 600" enable-background="new 0 0 600 600" xml:space="preserve">
<path fill="#E8EDEF" d="M470.436,278.958c-20.701-20.751-54.392-20.751-75.144,0l-42.146,42.135V128.614
	c0-29.336-23.781-53.146-53.146-53.146c-29.331,0-53.14,23.81-53.14,53.146v192.479l-42.146-42.135
	c-20.696-20.751-54.393-20.751-75.144,0C119.181,289.348,114,302.918,114,316.521c0,13.614,5.181,27.185,15.571,37.58l170.43,170.43
	l170.435-170.43C491.188,333.344,491.188,299.709,470.436,278.958L470.436,278.958z"/>
</svg>
