<?xml version="1.0" encoding="utf-8"?>
<!-- Generator: Adobe Illustrator 15.1.0, SVG Export Plug-In . SVG Version: 6.00 Build 0)  -->
<!DOCTYPE svg PUBLIC "-//W3C//DTD SVG 1.1//EN" "http://www.w3.org/Graphics/SVG/1.1/DTD/svg11.dtd">
<svg version="1.1" id="Layer_3" xmlns="http://www.w3.org/2000/svg" xmlns:xlink="http://www.w3.org/1999/xlink" x="0px" y="0px"
	 width="600px" height="600px" viewBox="0 0 600 600" enable-background="new 0 0 600 600" xml:space="preserve">
<g>
	<g>
		<path fill="#D1DEE5" d="M433.07,122.104H166.929c-20.968,0-38.02,17.053-38.02,38.021c0,20.969,17.052,38.019,38.02,38.019H433.07
			c20.969,0,38.021-17.05,38.021-38.019C471.092,139.156,454.039,122.104,433.07,122.104z"/>
	</g>
	<path fill="#D1DEE5" d="M143.226,251.981c-19.09,19.063-19.089,50.056,0,69.122l156.77,156.794l156.771-156.794
		c9.555-9.533,14.324-22.046,14.324-34.562c0-12.514-4.77-25.026-14.324-34.56c-19.092-19.09-50.031-19.09-69.123,0l-87.648,87.625
		l-87.649-87.625C193.258,232.891,162.315,232.891,143.226,251.981L143.226,251.981z"/>
</g>
</svg>
