<?xml version="1.0" encoding="utf-8"?>
<!-- Generator: Adobe Illustrator 15.1.0, SVG Export Plug-In . SVG Version: 6.00 Build 0)  -->
<!DOCTYPE svg PUBLIC "-//W3C//DTD SVG 1.1//EN" "http://www.w3.org/Graphics/SVG/1.1/DTD/svg11.dtd">
<svg version="1.1" id="Layer_3" xmlns="http://www.w3.org/2000/svg" xmlns:xlink="http://www.w3.org/1999/xlink" x="0px" y="0px"
	 width="100px" height="100px" viewBox="0 0 100 100" enable-background="new 0 0 100 100" xml:space="preserve">
<g>
	<path fill="#E8EDEF" d="M23.887,16.553c-4.072,4.062-4.072,10.675,0,14.746l8.271,8.271H10.428C4.672,39.571,0,44.237,0,49.998
		c0,5.755,4.672,10.43,10.428,10.43h21.729l-8.271,8.27c-4.072,4.062-4.072,10.674,0,14.745c2.04,2.041,4.702,3.058,7.372,3.058
		c2.671,0,5.334-1.017,7.375-3.058l33.444-33.444L38.633,16.553C34.562,12.482,27.959,12.482,23.887,16.553L23.887,16.553z"/>
	<path fill="#E8EDEF" d="M66.879,16.885c-2.012-2.018-4.656-3.026-7.3-3.026s-5.286,1.008-7.3,3.026
		c-0.751,0.751-1.361,1.589-1.833,2.482l30.63,30.631L50.445,80.63c0.472,0.894,1.082,1.732,1.834,2.484
		c4.027,4.032,10.574,4.032,14.6,0L100,50L66.879,16.885z"/>
</g>
</svg>
