<?xml version="1.0" encoding="utf-8"?>
<!-- Generator: Adobe Illustrator 15.1.0, SVG Export Plug-In . SVG Version: 6.00 Build 0)  -->
<!DOCTYPE svg PUBLIC "-//W3C//DTD SVG 1.1//EN" "http://www.w3.org/Graphics/SVG/1.1/DTD/svg11.dtd">
<svg version="1.1" id="Layer_3" xmlns="http://www.w3.org/2000/svg" xmlns:xlink="http://www.w3.org/1999/xlink" x="0px" y="0px"
	 width="740px" height="600px" viewBox="-72.5 0 740 600" enable-background="new -72.5 0 740 600" xml:space="preserve">
<g>
	<path fill="#E8EDEF" d="M-43.043,319.474c19.152,19.197,50.333,19.197,69.527,0l38.999-39.001v178.109
		c0,27.142,22.002,49.171,49.171,49.171c27.141,0,49.176-22.029,49.176-49.171V280.473l38.994,39.001
		c19.153,19.197,50.328,19.197,69.527,0c9.624-9.622,14.41-22.172,14.41-34.76c0-12.598-4.786-25.153-14.41-34.772L114.654,92.247
		L-43.043,249.941C-62.242,269.135-62.242,300.271-43.043,319.474L-43.043,319.474z"/>
	<path fill="#E8EDEF" d="M322.637,280.526c-19.197,19.204-19.197,50.338,0,69.532l157.698,157.693l157.696-157.693
		c9.624-9.618,14.411-22.176,14.411-34.772c0-12.588-4.787-25.139-14.411-34.76c-19.198-19.197-50.374-19.197-69.527,0
		l-38.994,39.001V141.418c0-27.141-22.035-49.171-49.175-49.171c-27.169,0-49.172,22.03-49.172,49.171v178.109l-38.999-39.001
		C372.97,261.329,341.79,261.329,322.637,280.526L322.637,280.526z"/>
</g>
</svg>
