<?xml version="1.0" encoding="utf-8"?>
<!-- Generator: Adobe Illustrator 15.1.0, SVG Export Plug-In . SVG Version: 6.00 Build 0)  -->
<!DOCTYPE svg PUBLIC "-//W3C//DTD SVG 1.1//EN" "http://www.w3.org/Graphics/SVG/1.1/DTD/svg11.dtd">
<svg version="1.1" id="Layer_3" xmlns="http://www.w3.org/2000/svg" xmlns:xlink="http://www.w3.org/1999/xlink" x="0px" y="0px"
	 width="600px" height="600px" viewBox="0 0 600 600" enable-background="new 0 0 600 600" xml:space="preserve">
<g>
	<path fill="#E8EDEF" d="M385.405,122.698c-21.589-21.584-56.593-21.584-78.172,0l-177.29,177.293l177.29,177.293
		c10.814,10.82,24.931,16.203,39.093,16.203c14.152,0,28.264-5.383,39.079-16.203c21.584-21.584,21.584-56.633,0-78.167
		l-43.846-43.84h200.242c30.513,0,55.28-24.773,55.28-55.287c0-30.544-24.768-55.281-55.28-55.281H341.56l43.846-43.846
		C406.989,179.286,406.989,144.231,385.405,122.698L385.405,122.698z"/>
	<path fill="#E8EDEF" d="M108.457,440.721c0,29.144-23.625,52.77-52.77,52.77l0,0c-29.144,0-52.769-23.626-52.769-52.77V159.279
		c0-29.144,23.625-52.769,52.769-52.769l0,0c29.144,0,52.77,23.625,52.77,52.769V440.721z"/>
</g>
</svg>
