<?xml version="1.0" encoding="utf-8"?>
<!-- Generator: Adobe Illustrator 15.1.0, SVG Export Plug-In . SVG Version: 6.00 Build 0)  -->
<!DOCTYPE svg PUBLIC "-//W3C//DTD SVG 1.1//EN" "http://www.w3.org/Graphics/SVG/1.1/DTD/svg11.dtd">
<svg version="1.1" id="Layer_3" xmlns="http://www.w3.org/2000/svg" xmlns:xlink="http://www.w3.org/1999/xlink" x="0px" y="0px"
	 width="100px" height="100px" viewBox="0 0 100 100" enable-background="new 0 0 100 100" xml:space="preserve">
<path fill="#E8EDEF" d="M54.171,16.221c-4.113-4.112-10.782-4.112-14.894,0L5.5,49.999l33.777,33.778
	c2.061,2.062,4.75,3.087,7.448,3.087c2.696,0,5.385-1.025,7.445-3.087c4.112-4.112,4.112-10.79,0-14.893l-8.354-8.353h38.15
	c5.813,0,10.532-4.72,10.532-10.533c0-5.819-4.719-10.532-10.532-10.532h-38.15l8.354-8.354
	C58.283,27.002,58.283,20.323,54.171,16.221L54.171,16.221z"/>
</svg>
