<?xml version="1.0" encoding="utf-8"?>
<!-- Generator: Adobe Illustrator 15.1.0, SVG Export Plug-In . SVG Version: 6.00 Build 0)  -->
<!DOCTYPE svg PUBLIC "-//W3C//DTD SVG 1.1//EN" "http://www.w3.org/Graphics/SVG/1.1/DTD/svg11.dtd">
<svg version="1.1" id="Capa_1" xmlns="http://www.w3.org/2000/svg" xmlns:xlink="http://www.w3.org/1999/xlink" x="0px" y="0px"
	 width="135.869px" height="91.764px" viewBox="0 0 135.869 91.764" enable-background="new 0 0 135.869 91.764"
	 xml:space="preserve">
<g>
	<path fill="#29506B" d="M37.696,50.476c-3.682,3.677-3.682,9.655,0,13.332L67.934,94.05l30.239-30.242
		c1.842-1.839,2.762-4.252,2.762-6.666s-0.92-4.827-2.762-6.666c-3.684-3.682-9.65-3.682-13.332,0L67.934,67.377L51.028,50.476
		C47.346,46.794,41.378,46.794,37.696,50.476L37.696,50.476z"/>
	<path fill="#29506B" d="M37.696,41.288c3.683,3.682,9.65,3.682,13.332,0l16.906-16.901l16.907,16.901
		c3.682,3.682,9.648,3.682,13.332,0c1.842-1.839,2.762-4.252,2.762-6.666s-0.92-4.827-2.762-6.666L67.934-2.286L37.696,27.956
		C34.014,31.633,34.014,37.612,37.696,41.288L37.696,41.288z"/>
</g>
</svg>
