<?xml version="1.0" encoding="utf-8"?>
<!-- Generator: Adobe Illustrator 15.1.0, SVG Export Plug-In . SVG Version: 6.00 Build 0)  -->
<!DOCTYPE svg PUBLIC "-//W3C//DTD SVG 1.1//EN" "http://www.w3.org/Graphics/SVG/1.1/DTD/svg11.dtd">
<svg version="1.1" id="Layer_3" xmlns="http://www.w3.org/2000/svg" xmlns:xlink="http://www.w3.org/1999/xlink" x="0px" y="0px"
	 width="100px" height="100px" viewBox="0 0 100 100" enable-background="new 0 0 100 100" xml:space="preserve">
<path fill="#E8EDEF" d="M46.323,20.22c-3.626,3.617-3.626,9.504,0,13.13l7.363,7.364H20.053c-5.126,0-9.286,4.155-9.286,9.286
	c0,5.125,4.16,9.285,9.286,9.285h33.632l-7.363,7.364c-3.626,3.616-3.626,9.504,0,13.13c1.815,1.815,4.187,2.721,6.564,2.721
	c2.379,0,4.75-0.905,6.566-2.721L89.232,50L59.453,20.22C55.826,16.594,49.949,16.594,46.323,20.22L46.323,20.22z"/>
</svg>
