<?xml version="1.0" encoding="utf-8"?>
<!-- Generator: Adobe Illustrator 15.1.0, SVG Export Plug-In . SVG Version: 6.00 Build 0)  -->
<!DOCTYPE svg PUBLIC "-//W3C//DTD SVG 1.1//EN" "http://www.w3.org/Graphics/SVG/1.1/DTD/svg11.dtd">
<svg version="1.1" id="Layer_1" xmlns="http://www.w3.org/2000/svg" xmlns:xlink="http://www.w3.org/1999/xlink" x="0px" y="0px"
	 width="100.48px" height="31.293px" viewBox="0 0 100.48 31.293" enable-background="new 0 0 100.48 31.293" xml:space="preserve">
<g>
	<path fill="#2F373E" d="M21.791,0h6.699L17.851,31.293h-7.234L0,0h6.699l5.887,18.623c0.328,1.099,0.668,2.38,1.018,3.842
		s0.566,2.479,0.652,3.051c0.158-1.313,0.693-3.611,1.605-6.893L21.791,0z"/>
	<path fill="#2F373E" d="M62.671,31.293V0h6.635v25.814H82v5.479H62.671z"/>
	<path fill="#2F373E" d="M91.984,31.293h-6.635V5.522h-8.498V0h23.629v5.522h-8.496V31.293z"/>
	<path fill="#FBB03B" d="M43.218,5.557c5.555,0,10.076,4.521,10.076,10.076s-4.521,10.074-10.076,10.074s-10.074-4.52-10.074-10.074
		S37.664,5.557,43.218,5.557 M43.218,0.01c-8.629,0-15.623,6.994-15.623,15.623c0,8.628,6.994,15.623,15.623,15.623
		s15.623-6.995,15.623-15.623C58.841,7.003,51.847,0.01,43.218,0.01L43.218,0.01z"/>
	<g>
		<g>
			<path fill="#FBB03B" d="M40.298,23.867c-0.178-0.115,2.881-6.541,2.775-6.822s-3.348-1.312-3.506-1.808
				c-0.158-0.497,6.4-7.953,6.572-7.809c0.172,0.144-2.857,6.612-2.773,6.822c0.082,0.21,3.404,1.284,3.506,1.808
				C46.972,16.583,40.474,23.983,40.298,23.867z"/>
		</g>
	</g>
</g>
</svg>
