<?xml version="1.0" encoding="utf-8"?>
<!-- Generator: Adobe Illustrator 15.1.0, SVG Export Plug-In . SVG Version: 6.00 Build 0)  -->
<!DOCTYPE svg PUBLIC "-//W3C//DTD SVG 1.1//EN" "http://www.w3.org/Graphics/SVG/1.1/DTD/svg11.dtd">
<svg version="1.1" id="Layer_3" xmlns="http://www.w3.org/2000/svg" xmlns:xlink="http://www.w3.org/1999/xlink" x="0px" y="0px"
	 width="600px" height="600px" viewBox="0 0 600 600" enable-background="new 0 0 600 600" xml:space="preserve">
<g>
	<path fill="#E8EDEF" d="M479.093,213.732c-21.751-21.802-57.16-21.802-78.957,0l-44.288,44.289V55.757
		c0-30.821-24.986-55.839-55.84-55.839c-30.821,0-55.845,25.018-55.845,55.839v202.264l-44.282-44.289
		c-21.751-21.802-57.154-21.802-78.957,0c-10.929,10.925-16.365,25.179-16.365,39.474c0,14.306,5.437,28.564,16.365,39.488
		l179.084,179.08l179.085-179.08C500.895,270.896,500.895,235.54,479.093,213.732L479.093,213.732z"/>
	<path fill="#E8EDEF" d="M157.858,493.478c-29.438,0-53.303,23.864-53.303,53.303l0,0c0,29.438,23.864,53.302,53.303,53.302h284.283
		c29.438,0,53.303-23.864,53.303-53.302l0,0c0-29.438-23.864-53.303-53.303-53.303H157.858z"/>
</g>
</svg>
