<?xml version="1.0" encoding="utf-8"?>
<!-- Generator: Adobe Illustrator 15.1.0, SVG Export Plug-In . SVG Version: 6.00 Build 0)  -->
<!DOCTYPE svg PUBLIC "-//W3C//DTD SVG 1.1//EN" "http://www.w3.org/Graphics/SVG/1.1/DTD/svg11.dtd">
<svg version="1.1" id="Layer_3" xmlns="http://www.w3.org/2000/svg" xmlns:xlink="http://www.w3.org/1999/xlink" x="0px" y="0px"
	 width="100px" height="100px" viewBox="0 0 100 100" enable-background="new 0 0 100 100" xml:space="preserve">
<path fill="#E8EDEF" d="M53.678,20.22c-3.627-3.626-9.504-3.626-13.131,0L10.768,50l29.779,29.779
	c1.816,1.814,4.188,2.721,6.566,2.721c2.377,0,4.749-0.905,6.564-2.721c3.625-3.627,3.625-9.514,0-13.131l-7.363-7.363h33.633
	c5.125,0,9.285-4.16,9.285-9.285c0-5.131-4.16-9.286-9.285-9.286H46.314l7.363-7.364C57.303,29.724,57.303,23.837,53.678,20.22
	L53.678,20.22z"/>
</svg>
