<?xml version="1.0" encoding="utf-8"?>
<!-- Generator: Adobe Illustrator 15.1.0, SVG Export Plug-In . SVG Version: 6.00 Build 0)  -->
<!DOCTYPE svg PUBLIC "-//W3C//DTD SVG 1.1//EN" "http://www.w3.org/Graphics/SVG/1.1/DTD/svg11.dtd">
<svg version="1.1" id="Layer_3" xmlns="http://www.w3.org/2000/svg" xmlns:xlink="http://www.w3.org/1999/xlink" x="0px" y="0px"
	 width="100px" height="100px" viewBox="0 0 100 100" enable-background="new 0 0 100 100" xml:space="preserve">
<g>
	<path fill="#E8EDEF" d="M76.113,16.553c-4.072-4.071-10.676-4.071-14.746,0L27.923,49.998l33.444,33.444
		c2.04,2.041,4.703,3.058,7.375,3.058c2.67,0,5.331-1.017,7.371-3.058c4.072-4.071,4.072-10.683,0-14.745l-8.271-8.27h21.729
		c5.756,0,10.428-4.675,10.428-10.43c0-5.761-4.672-10.427-10.428-10.427H67.843l8.271-8.271
		C80.186,27.229,80.186,20.615,76.113,16.553L76.113,16.553z"/>
	<path fill="#E8EDEF" d="M33.121,16.885c2.012-2.018,4.656-3.026,7.3-3.026s5.286,1.008,7.3,3.026
		c0.751,0.751,1.361,1.589,1.832,2.482l-30.63,30.631L49.555,80.63c-0.472,0.894-1.082,1.732-1.834,2.484
		c-4.027,4.032-10.574,4.032-14.6,0L0,50L33.121,16.885z"/>
</g>
</svg>
