<?xml version="1.0" encoding="utf-8"?>
<!-- Generator: Adobe Illustrator 15.1.0, SVG Export Plug-In . SVG Version: 6.00 Build 0)  -->
<!DOCTYPE svg PUBLIC "-//W3C//DTD SVG 1.1//EN" "http://www.w3.org/Graphics/SVG/1.1/DTD/svg11.dtd">
<svg version="1.1" id="Layer_3" xmlns="http://www.w3.org/2000/svg" xmlns:xlink="http://www.w3.org/1999/xlink" x="0px" y="0px"
	 width="100px" height="100px" viewBox="0 0 100 100" enable-background="new 0 0 100 100" xml:space="preserve">
<path fill="#E8EDEF" d="M45.829,16.221c-4.112,4.103-4.112,10.781,0,14.893l8.354,8.354h-38.15C10.219,39.467,5.5,44.18,5.5,49.999
	c0,5.813,4.719,10.533,10.532,10.533h38.15l-8.354,8.353c-4.112,4.103-4.112,10.78,0,14.893c2.061,2.062,4.749,3.087,7.445,3.087
	c2.698,0,5.388-1.025,7.448-3.087L94.5,49.999L60.723,16.221C56.611,12.108,49.942,12.108,45.829,16.221L45.829,16.221z"/>
</svg>
