<?xml version="1.0" encoding="utf-8"?>
<!-- Generator: Adobe Illustrator 15.1.0, SVG Export Plug-In . SVG Version: 6.00 Build 0)  -->
<!DOCTYPE svg PUBLIC "-//W3C//DTD SVG 1.1//EN" "http://www.w3.org/Graphics/SVG/1.1/DTD/svg11.dtd">
<svg version="1.1" id="Layer_3" xmlns="http://www.w3.org/2000/svg" xmlns:xlink="http://www.w3.org/1999/xlink" x="0px" y="0px"
	 width="600px" height="600px" viewBox="0 0 600 600" enable-background="new 0 0 600 600" xml:space="preserve">
<path fill="#9FADB5" d="M322.932,302.664c-12.885,12.854-12.885,33.779,0,46.66l26.173,26.173H229.574
	c-18.214,0-32.999,14.767-32.999,33c0,18.214,14.785,33.002,32.999,33.002h119.531l-26.173,26.169
	c-12.885,12.854-12.885,33.776,0,46.661c6.456,6.459,14.879,9.672,23.327,9.672c8.454,0,16.881-3.213,23.336-9.672l105.83-105.832
	l-105.83-105.833C356.714,289.779,335.818,289.779,322.932,302.664L322.932,302.664z"/>
<path fill="#9FADB5" d="M277.068,317.337c12.885-12.853,12.885-33.779,0-46.66l-26.173-26.173l119.531,0
	c18.215,0,32.999-14.767,32.999-33c0-18.214-14.784-33.002-32.999-33.002l-119.531,0l26.173-26.169
	c12.885-12.854,12.885-33.776,0-46.662C270.611,99.213,262.189,96,253.741,96c-8.454,0-16.881,3.213-23.336,9.672l-105.83,105.832
	l105.83,105.833C243.286,330.222,264.182,330.222,277.068,317.337L277.068,317.337z"/>
</svg>
