<?xml version="1.0" encoding="utf-8"?>
<!-- Generator: Adobe Illustrator 15.1.0, SVG Export Plug-In . SVG Version: 6.00 Build 0)  -->
<!DOCTYPE svg PUBLIC "-//W3C//DTD SVG 1.1//EN" "http://www.w3.org/Graphics/SVG/1.1/DTD/svg11.dtd">
<svg version="1.1" id="Layer_3" xmlns="http://www.w3.org/2000/svg" xmlns:xlink="http://www.w3.org/1999/xlink" x="0px" y="0px"
	 width="600px" height="600px" viewBox="0 0 600 600" enable-background="new 0 0 600 600" xml:space="preserve">
<g>
	<path fill="#E8EDEF" d="M213.732,120.908c-21.802,21.75-21.802,57.16,0,78.957l44.289,44.288H55.757
		c-30.821,0-55.839,24.987-55.839,55.839c0,30.822,25.018,55.845,55.839,55.845h202.264l-44.289,44.282
		c-21.802,21.751-21.802,57.154,0,78.957c10.925,10.929,25.179,16.365,39.474,16.365c14.306,0,28.564-5.437,39.488-16.365
		l179.08-179.084l-179.08-179.084C270.896,99.105,235.54,99.105,213.732,120.908L213.732,120.908z"/>
	<path fill="#E8EDEF" d="M493.478,442.142c0,29.438,23.864,53.303,53.303,53.303l0,0c29.438,0,53.302-23.864,53.302-53.303V157.858
		c0-29.438-23.864-53.302-53.302-53.302l0,0c-29.438,0-53.303,23.864-53.303,53.302V442.142z"/>
</g>
</svg>
