<?xml version="1.0" encoding="utf-8"?>
<!-- Generator: Adobe Illustrator 15.1.0, SVG Export Plug-In . SVG Version: 6.00 Build 0)  -->
<!DOCTYPE svg PUBLIC "-//W3C//DTD SVG 1.1//EN" "http://www.w3.org/Graphics/SVG/1.1/DTD/svg11.dtd">
<svg version="1.1" id="Layer_3" xmlns="http://www.w3.org/2000/svg" xmlns:xlink="http://www.w3.org/1999/xlink" x="0px" y="0px"
	 width="600px" height="600px" viewBox="0 0 600 600" enable-background="new 0 0 600 600" xml:space="preserve">
<path fill="#E8EDEF" d="M129.564,321.042c20.701,20.752,54.391,20.752,75.143,0l42.146-42.135v192.477
	c0,29.337,23.78,53.146,53.145,53.146c29.334,0,53.143-23.809,53.143-53.146V278.907l42.146,42.135
	c20.696,20.752,54.392,20.752,75.144,0c10.39-10.39,15.57-23.96,15.57-37.562c0-13.615-5.181-27.185-15.57-37.58L299.998,75.471
	L129.564,245.899C108.812,266.656,108.812,300.293,129.564,321.042L129.564,321.042z"/>
</svg>
