<?xml version="1.0" encoding="utf-8"?>
<!-- Generator: Adobe Illustrator 15.1.0, SVG Export Plug-In . SVG Version: 6.00 Build 0)  -->
<!DOCTYPE svg PUBLIC "-//W3C//DTD SVG 1.1//EN" "http://www.w3.org/Graphics/SVG/1.1/DTD/svg11.dtd">
<svg version="1.1" id="Layer_1" xmlns="http://www.w3.org/2000/svg" xmlns:xlink="http://www.w3.org/1999/xlink" x="0px" y="0px"
	 width="231.739px" height="120.875px" viewBox="0 0 231.739 120.875" enable-background="new 0 0 231.739 120.875"
	 xml:space="preserve">
<g>
	<g>
		<g>
			<path fill="#5F6870" d="M4.57,117.488H3.193v-5.531c0-0.66,0.016-1.184,0.047-1.57c-0.09,0.094-0.2,0.197-0.331,0.311
				s-0.569,0.473-1.315,1.078l-0.691-0.873l2.52-1.98H4.57V117.488z"/>
			<path fill="#5F6870" d="M12.704,113.205c0,1.488-0.239,2.594-0.718,3.316s-1.21,1.084-2.194,1.084
				c-0.953,0-1.676-0.373-2.168-1.119s-0.738-1.84-0.738-3.281c0-1.512,0.239-2.626,0.718-3.343s1.208-1.075,2.188-1.075
				c0.957,0,1.682,0.375,2.174,1.125S12.704,111.76,12.704,113.205z M8.28,113.205c0,1.168,0.12,2.002,0.36,2.502
				s0.624,0.75,1.151,0.75s0.913-0.254,1.157-0.762s0.366-1.338,0.366-2.49c0-1.148-0.122-1.979-0.366-2.493
				s-0.63-0.771-1.157-0.771s-0.911,0.252-1.151,0.756S8.28,112.037,8.28,113.205z"/>
		</g>
	</g>
	<g>
		<g>
			<path fill="#5F6870" d="M37.62,117.488h-5.807v-1.043l2.209-2.221c0.652-0.668,1.085-1.142,1.298-1.421s0.368-0.542,0.466-0.788
				s0.146-0.51,0.146-0.791c0-0.387-0.116-0.691-0.349-0.914s-0.554-0.334-0.964-0.334c-0.328,0-0.646,0.061-0.952,0.182
				s-0.661,0.34-1.063,0.656l-0.744-0.908c0.477-0.402,0.939-0.688,1.389-0.855s0.928-0.252,1.436-0.252
				c0.797,0,1.436,0.208,1.916,0.624s0.721,0.976,0.721,1.679c0,0.387-0.069,0.754-0.208,1.102s-0.352,0.706-0.639,1.075
				s-0.765,0.868-1.433,1.497l-1.488,1.441v0.059h4.066V117.488z"/>
			<path fill="#5F6870" d="M43.989,113.205c0,1.488-0.239,2.594-0.718,3.316s-1.21,1.084-2.194,1.084
				c-0.953,0-1.676-0.373-2.168-1.119s-0.738-1.84-0.738-3.281c0-1.512,0.239-2.626,0.718-3.343s1.208-1.075,2.188-1.075
				c0.957,0,1.682,0.375,2.174,1.125S43.989,111.76,43.989,113.205z M39.565,113.205c0,1.168,0.12,2.002,0.36,2.502
				s0.624,0.75,1.151,0.75s0.913-0.254,1.157-0.762s0.366-1.338,0.366-2.49c0-1.148-0.122-1.979-0.366-2.493
				s-0.63-0.771-1.157-0.771s-0.911,0.252-1.151,0.756S39.565,112.037,39.565,113.205z"/>
		</g>
	</g>
	<g>
		<g>
			<path fill="#5F6870" d="M68.583,110.891c0,0.543-0.158,0.995-0.475,1.356s-0.762,0.604-1.336,0.729v0.047
				c0.688,0.086,1.203,0.3,1.547,0.642s0.516,0.796,0.516,1.362c0,0.824-0.291,1.46-0.873,1.907s-1.41,0.671-2.484,0.671
				c-0.949,0-1.75-0.154-2.402-0.463v-1.225c0.363,0.18,0.748,0.318,1.154,0.416s0.797,0.146,1.172,0.146
				c0.664,0,1.16-0.123,1.488-0.369s0.492-0.627,0.492-1.143c0-0.457-0.182-0.793-0.545-1.008s-0.934-0.322-1.711-0.322h-0.744
				v-1.119h0.756c1.367,0,2.051-0.473,2.051-1.418c0-0.367-0.119-0.65-0.357-0.85s-0.59-0.299-1.055-0.299
				c-0.324,0-0.637,0.046-0.938,0.138s-0.656,0.271-1.066,0.536l-0.674-0.961c0.785-0.578,1.697-0.867,2.736-0.867
				c0.863,0,1.537,0.186,2.021,0.557S68.583,110.238,68.583,110.891z"/>
			<path fill="#5F6870" d="M75.275,113.205c0,1.488-0.239,2.594-0.718,3.316s-1.21,1.084-2.194,1.084
				c-0.953,0-1.676-0.373-2.168-1.119s-0.738-1.84-0.738-3.281c0-1.512,0.239-2.626,0.718-3.343s1.208-1.075,2.188-1.075
				c0.957,0,1.682,0.375,2.174,1.125S75.275,111.76,75.275,113.205z M70.851,113.205c0,1.168,0.12,2.002,0.36,2.502
				s0.624,0.75,1.151,0.75s0.913-0.254,1.157-0.762s0.366-1.338,0.366-2.49c0-1.148-0.122-1.979-0.366-2.493
				s-0.63-0.771-1.157-0.771s-0.911,0.252-1.151,0.756S70.851,112.037,70.851,113.205z"/>
		</g>
	</g>
	<g>
		<g>
			<path fill="#5F6870" d="M100.496,115.619h-1.154v1.869H98v-1.869h-3.914v-1.061l3.914-5.66h1.342v5.578h1.154V115.619z
				 M98,114.477v-2.15c0-0.766,0.02-1.393,0.059-1.881h-0.047c-0.109,0.258-0.281,0.57-0.516,0.938l-2.127,3.094H98z"/>
			<path fill="#5F6870" d="M106.561,113.205c0,1.488-0.239,2.594-0.718,3.316s-1.21,1.084-2.194,1.084
				c-0.953,0-1.676-0.373-2.168-1.119s-0.738-1.84-0.738-3.281c0-1.512,0.239-2.626,0.718-3.343s1.208-1.075,2.188-1.075
				c0.957,0,1.682,0.375,2.174,1.125S106.561,111.76,106.561,113.205z M102.137,113.205c0,1.168,0.12,2.002,0.36,2.502
				s0.624,0.75,1.151,0.75s0.913-0.254,1.157-0.762s0.366-1.338,0.366-2.49c0-1.148-0.122-1.979-0.366-2.493
				s-0.63-0.771-1.157-0.771s-0.911,0.252-1.151,0.756S102.137,112.037,102.137,113.205z"/>
		</g>
	</g>
	<g>
		<g>
			<path fill="#5F6870" d="M128.577,112.139c0.863,0,1.547,0.229,2.051,0.686s0.756,1.08,0.756,1.869
				c0,0.914-0.286,1.628-0.858,2.142s-1.386,0.771-2.44,0.771c-0.957,0-1.709-0.154-2.256-0.463v-1.248
				c0.316,0.18,0.68,0.318,1.09,0.416s0.791,0.146,1.143,0.146c0.621,0,1.094-0.139,1.418-0.416s0.486-0.684,0.486-1.219
				c0-1.023-0.652-1.535-1.957-1.535c-0.184,0-0.41,0.019-0.68,0.056s-0.506,0.079-0.709,0.126l-0.615-0.363l0.328-4.184h4.453
				v1.225h-3.24l-0.193,2.121c0.137-0.023,0.304-0.051,0.501-0.082S128.292,112.139,128.577,112.139z"/>
			<path fill="#5F6870" d="M137.846,113.205c0,1.488-0.238,2.594-0.717,3.316s-1.211,1.084-2.195,1.084
				c-0.953,0-1.676-0.373-2.168-1.119s-0.738-1.84-0.738-3.281c0-1.512,0.24-2.626,0.719-3.343s1.207-1.075,2.188-1.075
				c0.957,0,1.682,0.375,2.174,1.125S137.846,111.76,137.846,113.205z M133.422,113.205c0,1.168,0.121,2.002,0.361,2.502
				s0.623,0.75,1.15,0.75s0.914-0.254,1.158-0.762s0.365-1.338,0.365-2.49c0-1.148-0.121-1.979-0.365-2.493
				s-0.631-0.771-1.158-0.771s-0.91,0.252-1.15,0.756S133.422,112.037,133.422,113.205z"/>
		</g>
	</g>
	<g>
		<g>
			<path fill="#5F6870" d="M156.979,113.838c0-3.352,1.365-5.027,4.096-5.027c0.43,0,0.793,0.033,1.09,0.1v1.148
				c-0.297-0.086-0.641-0.129-1.031-0.129c-0.918,0-1.607,0.246-2.068,0.738s-0.711,1.281-0.75,2.367h0.07
				c0.184-0.316,0.441-0.562,0.773-0.735s0.723-0.261,1.172-0.261c0.777,0,1.383,0.238,1.816,0.715s0.65,1.123,0.65,1.939
				c0,0.898-0.25,1.608-0.752,2.13s-1.188,0.782-2.055,0.782c-0.613,0-1.146-0.147-1.6-0.442s-0.801-0.725-1.045-1.289
				S156.979,114.631,156.979,113.838z M159.967,116.469c0.473,0,0.838-0.152,1.094-0.457s0.383-0.74,0.383-1.307
				c0-0.492-0.119-0.879-0.359-1.16s-0.602-0.422-1.082-0.422c-0.297,0-0.57,0.063-0.82,0.19s-0.447,0.301-0.592,0.521
				s-0.217,0.446-0.217,0.677c0,0.551,0.15,1.015,0.449,1.392S159.502,116.469,159.967,116.469z"/>
			<path fill="#5F6870" d="M169.132,113.205c0,1.488-0.239,2.594-0.718,3.316s-1.21,1.084-2.194,1.084
				c-0.953,0-1.676-0.373-2.168-1.119s-0.738-1.84-0.738-3.281c0-1.512,0.239-2.626,0.718-3.343s1.208-1.075,2.188-1.075
				c0.957,0,1.682,0.375,2.174,1.125S169.132,111.76,169.132,113.205z M164.708,113.205c0,1.168,0.12,2.002,0.36,2.502
				s0.624,0.75,1.151,0.75s0.913-0.254,1.157-0.762s0.366-1.338,0.366-2.49c0-1.148-0.122-1.979-0.366-2.493
				s-0.63-0.771-1.157-0.771s-0.911,0.252-1.151,0.756S164.708,112.037,164.708,113.205z"/>
		</g>
	</g>
	<g>
		<g>
			<path fill="#5F6870" d="M189.214,117.488l3.387-7.342h-4.453v-1.213h5.924v0.961l-3.369,7.594H189.214z"/>
			<path fill="#5F6870" d="M200.418,113.205c0,1.488-0.24,2.594-0.719,3.316s-1.209,1.084-2.193,1.084
				c-0.953,0-1.676-0.373-2.168-1.119s-0.738-1.84-0.738-3.281c0-1.512,0.238-2.626,0.717-3.343s1.209-1.075,2.189-1.075
				c0.957,0,1.682,0.375,2.174,1.125S200.418,111.76,200.418,113.205z M195.995,113.205c0,1.168,0.119,2.002,0.359,2.502
				s0.625,0.75,1.152,0.75s0.912-0.254,1.156-0.762s0.367-1.338,0.367-2.49c0-1.148-0.123-1.979-0.367-2.493
				s-0.629-0.771-1.156-0.771s-0.912,0.252-1.152,0.756S195.995,112.037,195.995,113.205z"/>
		</g>
	</g>
	<g>
		<g>
			<path fill="#5F6870" d="M222.422,108.811c0.812,0,1.455,0.187,1.928,0.56s0.709,0.872,0.709,1.497
				c0,0.879-0.527,1.578-1.582,2.098c0.672,0.336,1.148,0.689,1.432,1.061s0.426,0.785,0.426,1.242c0,0.707-0.26,1.273-0.779,1.699
				s-1.223,0.639-2.109,0.639c-0.93,0-1.65-0.199-2.162-0.598s-0.768-0.963-0.768-1.693c0-0.477,0.133-0.905,0.4-1.286
				s0.707-0.72,1.316-1.017c-0.523-0.312-0.896-0.643-1.119-0.99s-0.334-0.738-0.334-1.172c0-0.621,0.244-1.116,0.732-1.485
				S221.637,108.811,222.422,108.811z M220.834,115.268c0,0.406,0.143,0.722,0.428,0.946s0.672,0.337,1.16,0.337
				c0.504,0,0.895-0.116,1.174-0.349s0.42-0.548,0.42-0.946c0-0.316-0.129-0.605-0.387-0.867s-0.648-0.504-1.172-0.727l-0.17-0.076
				c-0.516,0.227-0.887,0.476-1.113,0.747S220.834,114.916,220.834,115.268z M222.411,109.871c-0.391,0-0.705,0.097-0.943,0.29
				s-0.357,0.456-0.357,0.788c0,0.203,0.043,0.385,0.129,0.545s0.211,0.306,0.375,0.437s0.441,0.288,0.832,0.472
				c0.469-0.207,0.799-0.425,0.992-0.653s0.291-0.495,0.291-0.8c0-0.332-0.121-0.595-0.361-0.788S222.809,109.871,222.411,109.871z"
				/>
			<path fill="#5F6870" d="M231.704,113.205c0,1.488-0.239,2.594-0.718,3.316s-1.21,1.084-2.194,1.084
				c-0.953,0-1.676-0.373-2.168-1.119s-0.738-1.84-0.738-3.281c0-1.512,0.239-2.626,0.718-3.343s1.208-1.075,2.188-1.075
				c0.957,0,1.682,0.375,2.174,1.125S231.704,111.76,231.704,113.205z M227.28,113.205c0,1.168,0.12,2.002,0.36,2.502
				s0.624,0.75,1.151,0.75s0.913-0.254,1.157-0.762s0.366-1.338,0.366-2.49c0-1.148-0.122-1.979-0.366-2.493
				s-0.63-0.771-1.157-0.771s-0.911,0.252-1.151,0.756S227.28,112.037,227.28,113.205z"/>
		</g>
	</g>
	<g opacity="0.4">
		<line opacity="0.2" fill="none" stroke="#5F6870" stroke-miterlimit="10" x1="5.786" y1="98" x2="5.786" y2="0"/>
		<g>
			<line opacity="0.2" fill="none" stroke="#5F6870" stroke-miterlimit="10" x1="37.786" y1="98" x2="37.786" y2="0"/>
		</g>
		<g>
			<line opacity="0.2" fill="none" stroke="#5F6870" stroke-miterlimit="10" x1="67.786" y1="98" x2="67.786" y2="0"/>
		</g>
		<g>
			<line opacity="0.2" fill="none" stroke="#5F6870" stroke-miterlimit="10" x1="99.786" y1="98" x2="99.786" y2="0"/>
		</g>
		<g>
			<line opacity="0.2" fill="none" stroke="#5F6870" stroke-miterlimit="10" x1="130.786" y1="98" x2="130.786" y2="0"/>
		</g>
		<g>
			<line opacity="0.2" fill="none" stroke="#5F6870" stroke-miterlimit="10" x1="161.786" y1="98" x2="161.786" y2="0"/>
		</g>
		<g>
			<line opacity="0.2" fill="none" stroke="#5F6870" stroke-miterlimit="10" x1="192.786" y1="98" x2="192.786" y2="0"/>
		</g>
		<g>
			<line opacity="0.2" fill="none" stroke="#5F6870" stroke-miterlimit="10" x1="222.786" y1="98" x2="222.786" y2="0"/>
		</g>
	</g>
	<g>
		<polyline fill="none" stroke="#ED1C24" stroke-miterlimit="10" points="3.538,51.262 47.116,32.116 95.25,75.348 136.629,47.556 
			190.36,85.229 224.018,68.554 		"/>
		<circle fill="#ED1C24" cx="47.425" cy="32.077" r="2.835"/>
		<circle fill="#ED1C24" cx="95.597" cy="74.691" r="2.835"/>
		<circle fill="#ED1C24" cx="136.359" cy="47.826" r="2.835"/>
		<circle fill="#ED1C24" cx="190.089" cy="84.881" r="2.835"/>
		<circle fill="#ED1C24" cx="224.365" cy="68.206" r="2.835"/>
		<circle fill="#ED1C24" cx="3.886" cy="50.605" r="2.835"/>
	</g>
	<g>
		<polyline fill="none" stroke="#0277BD" stroke-miterlimit="10" points="224.711,51.262 146.665,23.276 114.473,43.426 
			73.596,18.529 17.434,82.047 4.233,68.554 		"/>
		<circle fill="#0277BD" cx="16.855" cy="82.102" r="2.835"/>
		<circle fill="#0277BD" cx="146.548" cy="22.813" r="2.835"/>
		<circle fill="#0277BD" cx="114.125" cy="43.193" r="2.835"/>
		<circle fill="#0277BD" cx="73.365" cy="18.182" r="2.835"/>
		<circle fill="#0277BD" cx="3.886" cy="68.206" r="2.835"/>
		<circle fill="#0277BD" cx="224.365" cy="50.605" r="2.835"/>
	</g>
</g>
</svg>
