<?xml version="1.0" encoding="utf-8"?>
<!-- Generator: Adobe Illustrator 15.1.0, SVG Export Plug-In . SVG Version: 6.00 Build 0)  -->
<!DOCTYPE svg PUBLIC "-//W3C//DTD SVG 1.1//EN" "http://www.w3.org/Graphics/SVG/1.1/DTD/svg11.dtd">
<svg version="1.1" id="Layer_3" xmlns="http://www.w3.org/2000/svg" xmlns:xlink="http://www.w3.org/1999/xlink" x="0px" y="0px"
	 width="600px" height="600px" viewBox="0 0 600 600" enable-background="new 0 0 600 600" xml:space="preserve">
<g>
	<path fill="#29506B" d="M482.39,279.456c-21.781-21.785-57.229-21.785-79.014,0l-4.141,4.141l79.014,79.014l4.141-4.141
		C504.174,336.686,504.174,301.24,482.39,279.456z"/>
	<path fill="#29506B" d="M401.015,372.4c-3.192,3.19-8.373,3.19-11.565,0c-3.194-3.195-3.194-8.375,0-11.568l30.695-30.697
		l-33.725-33.724l-38.924,38.925c-1.579,1.579-2.59,3.641-2.869,5.857l-9.351,74.129c-0.394,3.085,0.671,6.179,2.867,8.378
		c2.199,2.199,5.294,3.259,8.381,2.869l74.129-9.354c2.217-0.278,4.275-1.289,5.855-2.866l38.925-38.929L431.713,341.7
		L401.015,372.4z M356.168,409.275c-0.987,0.123-1.977-0.215-2.681-0.918c-0.704-0.705-1.043-1.693-0.919-2.684l2.989-23.721
		l24.326,24.326L356.168,409.275z"/>
	<path fill="#29506B" d="M415.993,440.221v15.251H225.725V144.528h190.269v108.249c9.137-4.435,19.139-6.992,29.528-7.458V134.686
		c0-10.872-8.812-19.686-19.688-19.686h-271.66c-10.872,0-19.686,8.813-19.686,19.686v48.187h-14.516
		c-10.312,0-18.701,8.389-18.701,18.7c0,10.311,8.389,18.7,18.701,18.7h14.516V281.3h-14.516c-10.312,0-18.701,8.389-18.701,18.7
		c0,10.312,8.389,18.7,18.701,18.7h14.516v61.026h-14.516c-10.312,0-18.701,8.39-18.701,18.698c0,10.312,8.389,18.7,18.701,18.7
		h14.516v48.188c0,10.87,8.814,19.686,19.686,19.686h271.661c10.873,0,19.688-8.812,19.688-19.686V431
		c-4.513,4.106-10.237,6.786-16.307,7.552L415.993,440.221z M194.039,455.472h-30.021v-38.344h4.676c10.312,0,18.7-8.39,18.7-18.7
		s-8.388-18.699-18.7-18.699h-4.676V318.7h4.676c10.312,0,18.7-8.388,18.7-18.7c0-10.312-8.388-18.7-18.7-18.7h-4.676v-61.027h4.676
		c10.312,0,18.7-8.389,18.7-18.7c0-10.312-8.388-18.7-18.7-18.7h-4.676v-38.344h30.021V455.472z"/>
</g>
</svg>
